<svg version="1" xmlns="http://www.w3.org/2000/svg" width="346.667" height="346.667" viewBox="0 0 260.000000 260.000000"><path d="M109.6 8.1c-2.1.5-4.4 1.6-5.1 2.5-.7 1.1-3 1.7-6.6 1.9-3 .1-6.2.6-7.2 1s-2.6.1-4-.8c-4.8-3.1-14.4-1.9-18.2 2.3-1 1.1-3.1 2-4.6 2-1.5 0-2.9.4-3.1 1-.1.5-2 1.2-4 1.4-4.2.6-9.8 3.2-9.8 4.6 0 .5-1.7.7-4 .4-6.7-.9-12.7 4.2-13.7 11.6-.4 2.6-1.6 4.8-3.9 6.9-1.8 1.7-3.6 4.2-4 5.4-.3 1.2-1.2 2.9-1.9 3.7-1 1.1-1.1 2.7-.4 6.5.5 2.7 1.1 5.9 1.3 7 .2 1.1.9 4.8 1.6 8.3.6 3.5 3.6 17.2 6.6 30.5 3 13.3 5.7 25.1 5.9 26.2.3 1.1 2.1 8.5 4 16.5 2 8 4 16.3 4.5 18.5.4 2.2 2.3 10.1 4.3 17.5 1.9 7.4 3.7 14.6 4 16 .3 1.4 2.6 10.6 5.2 20.5 4.7 18 5.3 20.5 5.4 21.6.2 1 14.8 5.2 24.1 6.9 9.2 1.7 9 1.7 14.5 2.5 7.2 1.1 32.7 1.3 39.3.3 10-1.5 11.6-1.8 14.2-2.3 1.4-.4 3.7-.8 5.1-1.1 1.5-.3 6.2-1.7 10.5-3.2l7.9-2.7 1.1-8.3c.7-4.6 1.5-10.9 1.9-14 1-7.5 1.2-9 1.8-13.2.3-1.9.9-5.8 1.3-8.5.5-3.8 1.8-6.7 5.7-12 11.9-16.4 50.1-74.5 54.3-82.7 4.5-8.6 5.2-18.8 1.7-23.7-1.1-1.4-4.3-3.8-7.3-5.3-5.3-2.7-5.9-2.7-19-2.4-7.4.3-14.5.7-15.7 1.1-2 .6-2.3.4-2.3-2.1 0-1.6.6-4.9 1.4-7.4 1.2-3.9 1.2-5.2 0-8.5-.7-2.1-2-4.2-2.8-4.7-.9-.5-1.6-2-1.6-3.4 0-4-2.9-9.2-6.4-11.6-1.7-1.1-3.5-2.6-4.1-3.2-2.1-2.3-6.6-4.6-10.1-5.2-2.4-.4-4.8-1.8-6.9-4-1.8-1.9-4-3.5-4.9-3.5-.9-.1-2.2-.2-2.8-.3-.7-.1-2.6.4-4.1 1.2-2.5 1.2-3.1 1.1-4.6-.3-1-.8-4-2.3-6.7-3.3s-6.1-2.6-7.6-3.6c-2-1.3-4-1.7-7-1.4-3.1.4-5.2 0-7.5-1.4-3.9-2.3-10.4-3-15.7-1.7zm124.5 72.5c8.7 4.4 7.4 11.1-6.6 33.1-15.1 23.7-39.7 60.4-40.2 59.9-.3-.2 0-3.7.6-7.8.6-4 1.3-9.3 1.6-11.8.3-2.5.8-5.6 1-7 .2-1.4.7-4.5.9-7 .5-4.6.9-7.6 2.6-19 .5-3.6 1.2-8.3 1.5-10.5.3-2.2 1-7.4 1.5-11.5.6-4.1 1.4-9.5 1.7-12 .3-2.5.8-4.8 1.2-5.2 2.4-2.5 29.7-3.5 34.2-1.2z"/></svg>